<?xml version="1.0" encoding="UTF-8"?>
<!DOCTYPE svg PUBLIC "-//W3C//DTD SVG 1.1//EN" "http://www.w3.org/Graphics/SVG/1.1/DTD/svg11.dtd">
<!-- Creator: CorelDRAW X7 -->
<svg xmlns="http://www.w3.org/2000/svg" xml:space="preserve" width="19.452cm" height="17.4764cm" version="1.1" style="shape-rendering:geometricPrecision; text-rendering:geometricPrecision; image-rendering:optimizeQuality; fill-rule:evenodd; clip-rule:evenodd"
viewBox="0 0 330 296"
 xmlns:xlink="http://www.w3.org/1999/xlink">
 <defs>
  <style type="text/css">
   <![CDATA[
    .fil0 {fill:#19BF69}
   ]]>
  </style>
 </defs>
 <g id="Layer_x0020_1">
  <metadata id="CorelCorpID_0Corel-Layer"/>
  <g id="pay_x0020__x0028_1_x0029_.svg">
   <g>
    <g>
     <path class="fil0" d="M262 231c-3,-2 -7,-1 -9,2 -2,3 -4,5 -7,8 -1,2 -3,4 -6,6 -3,2 -3,6 -1,9 2,2 3,2 5,2 2,0 3,0 4,-1 3,-3 6,-5 8,-7 3,-3 5,-6 8,-10 2,-3 1,-7 -2,-9z"/>
    </g>
   </g>
   <g>
    <g>
     <path class="fil0" d="M234 260c-2,-3 -5,-5 -9,-3l0 0c-3,2 -5,5 -3,9 1,2 3,3 6,3 1,0 2,0 2,0 1,0 1,0 1,0 3,-2 4,-6 3,-9z"/>
    </g>
   </g>
   <g>
    <g>
     <path class="fil0" d="M310 0l-291 0c-10,0 -19,9 -19,19l0 181c0,10 9,19 19,19l136 0c6,24 19,41 30,52 16,17 35,25 43,25 7,0 26,-8 43,-25 11,-11 24,-28 30,-52l9 0c11,0 20,-9 20,-19l0 -181c0,-10 -9,-19 -20,-19zm-19 192c0,34 -16,57 -29,70 -15,15 -31,21 -34,21 -3,0 -19,-6 -35,-21 -13,-13 -28,-36 -28,-70l0 -31c22,-7 43,-15 63,-27 20,11 41,20 63,27l0 31zm26 8c0,3 -3,6 -7,6l-7 0c1,-4 1,-9 1,-14l0 -36c0,-3 -2,-6 -5,-6 -23,-7 -47,-17 -68,-29 -2,-1 -4,-1 -6,0 -22,13 -44,22 -68,29 -3,0 -5,3 -5,6l0 36c0,5 0,10 1,14l-134 0c-3,0 -6,-3 -6,-6l0 -110 304 0 0 110zm0 -123l-304 0 0 -26 304 0 0 26zm0 -38l-304 0 0 -20c0,-3 3,-6 6,-6l291 0c4,0 7,3 7,6l0 20z"/>
    </g>
   </g>
   <g>
    <g>
     <path class="fil0" d="M77 135c-4,0 -7,1 -11,2 -3,-1 -7,-2 -11,-2 -16,0 -29,13 -29,29 0,16 13,29 29,29 4,0 8,-1 11,-2 4,1 7,2 11,2 16,0 29,-13 29,-29 0,-16 -13,-29 -29,-29zm-22 45c-9,0 -16,-7 -16,-16 0,-9 7,-16 16,-16 9,0 16,7 16,16 0,9 -7,16 -16,16zm24 0c3,-4 5,-10 5,-16 0,-6 -2,-11 -5,-16 8,1 14,8 14,16 0,8 -6,15 -14,16z"/>
    </g>
   </g>
   <g>
    <g>
     <path class="fil0" d="M65 106l-33 0c-3,0 -6,3 -6,7 0,3 3,6 6,6l33 0c4,0 7,-3 7,-6 0,-4 -3,-7 -7,-7z"/>
    </g>
   </g>
   <g>
    <g>
     <path class="fil0" d="M84 106l0 0c-4,0 -6,3 -6,7 0,3 2,6 6,6l0 0c4,0 7,-3 7,-6 0,-4 -3,-7 -7,-7z"/>
    </g>
   </g>
   <g>
    <g>
     <path class="fil0" d="M263 178c-2,-3 -6,-3 -9,0l-34 34 -18 -18c-3,-2 -7,-2 -10,0 -2,3 -2,7 0,9l23 23c1,1 3,2 5,2 1,0 3,-1 4,-2l39 -39c3,-3 3,-7 0,-9z"/>
    </g>
   </g>
   <g>
   </g>
   <g>
   </g>
   <g>
   </g>
   <g>
   </g>
   <g>
   </g>
   <g>
   </g>
   <g>
   </g>
   <g>
   </g>
   <g>
   </g>
   <g>
   </g>
   <g>
   </g>
   <g>
   </g>
   <g>
   </g>
   <g>
   </g>
   <g>
   </g>
  </g>
 </g>
</svg>
