<?xml version="1.0" encoding="UTF-8"?>
<!DOCTYPE svg PUBLIC "-//W3C//DTD SVG 1.1//EN" "http://www.w3.org/Graphics/SVG/1.1/DTD/svg11.dtd">
<!-- Creator: CorelDRAW X7 -->
<svg xmlns="http://www.w3.org/2000/svg" xml:space="preserve" width="18.8761cm" height="16.6413cm" version="1.1" style="shape-rendering:geometricPrecision; text-rendering:geometricPrecision; image-rendering:optimizeQuality; fill-rule:evenodd; clip-rule:evenodd"
viewBox="0 0 452 398"
 xmlns:xlink="http://www.w3.org/1999/xlink"
 enable-background="new 0 0 128 128">
 <defs>
  <style type="text/css">
   <![CDATA[
    .fil0 {fill:#C5C6C6}
   ]]>
  </style>
 </defs>
 <g id="Layer_x0020_1">
  <metadata id="CorelCorpID_0Corel-Layer"/>
  <g id="live-news_x0020__x0028_1_x0029_.svg">
   <g>
    <path class="fil0" d="M442 164l-163 0c-6,-29 -35,-48 -64,-42 -21,4 -38,21 -42,42l-163 0c-6,0 -9,5 -10,10l0 215c0,5 4,9 10,9l432 0c5,0 10,-4 10,-9l0 -215c-1,-5 -5,-10 -10,-10l0 0zm-216 -24c19,0 35,16 35,35 0,20 -16,35 -35,35 -20,0 -35,-16 -35,-35 0,-21 18,-35 35,-35zm207 239l-413 0 0 -196 153 0c4,30 32,50 61,45 23,-3 41,-21 45,-45l153 0 1 196z"/>
    <polygon class="fil0" points="81,257 64,257 64,343 125,343 125,329 81,329 "/>
    <polygon class="fil0" points="160,256 178,256 178,343 160,343 "/>
    <polygon class="fil0" points="250,321 228,256 209,256 239,343 258,343 290,256 271,256 "/>
    <polygon class="fil0" points="388,329 339,329 339,305 383,305 383,290 339,290 339,271 387,271 387,256 321,256 321,343 388,343 "/>
    <path class="fil0" d="M144 94c-3,3 -3,9 0,13 4,4 10,4 14,0 37,-37 98,-37 136,0 4,4 10,4 13,0 4,-4 4,-10 0,-13 -45,-45 -117,-45 -163,0l0 0z"/>
    <path class="fil0" d="M116 65c60,-61 159,-61 220,0 4,4 10,4 14,0 3,-4 3,-10 0,-14 -69,-68 -179,-68 -248,0 -4,4 -4,10 0,14 5,5 11,2 14,0l0 0z"/>
   </g>
  </g>
 </g>
</svg>
