<?xml version="1.0" encoding="UTF-8"?>
<!DOCTYPE svg PUBLIC "-//W3C//DTD SVG 1.1//EN" "http://www.w3.org/Graphics/SVG/1.1/DTD/svg11.dtd">
<!-- Creator: CorelDRAW X7 -->
<svg xmlns="http://www.w3.org/2000/svg" xml:space="preserve" width="20.7738cm" height="20.7738cm" version="1.1" style="shape-rendering:geometricPrecision; text-rendering:geometricPrecision; image-rendering:optimizeQuality; fill-rule:evenodd; clip-rule:evenodd"
viewBox="0 0 375 375"
 xmlns:xlink="http://www.w3.org/1999/xlink"
 enable-background="new 0 0 24 24">
 <defs>
  <style type="text/css">
   <![CDATA[
    .fil0 {fill:#19BF69}
   ]]>
  </style>
 </defs>
 <g id="Layer_x0020_1">
  <metadata id="CorelCorpID_0Corel-Layer"/>
  <g id="brain.svg">
   <g>
    <path class="fil0" d="M274 313l-172 0c-22,0 -39,-18 -39,-39l0 -172c0,-22 17,-39 39,-39l172 0c21,0 39,17 39,39l0 172c0,21 -18,39 -39,39l0 0zm-172 -235c-13,0 -24,11 -24,24l0 172c0,13 11,23 24,23l172 0c13,0 23,-10 23,-23l0 -172c0,-13 -10,-24 -23,-24l-172 0z"/>
   </g>
   <g>
    <path class="fil0" d="M117 78c-4,0 -8,-3 -8,-8l0 -62c0,-4 4,-8 8,-8 5,0 8,4 8,8l0 62c0,5 -3,8 -8,8z"/>
   </g>
   <g>
    <path class="fil0" d="M188 78c-5,0 -8,-3 -8,-8l0 -62c0,-4 3,-8 8,-8 4,0 7,4 7,8l0 62c0,5 -3,8 -7,8z"/>
   </g>
   <g>
    <path class="fil0" d="M258 78c-4,0 -8,-3 -8,-8l0 -62c0,-4 4,-8 8,-8 4,0 8,4 8,8l0 62c0,5 -4,8 -8,8z"/>
   </g>
   <g>
    <path class="fil0" d="M117 375c-4,0 -8,-3 -8,-8l0 -62c0,-4 4,-8 8,-8 5,0 8,4 8,8l0 62c0,5 -3,8 -8,8z"/>
   </g>
   <g>
    <path class="fil0" d="M188 375c-5,0 -8,-3 -8,-8l0 -62c0,-4 3,-8 8,-8 4,0 7,4 7,8l0 62c0,5 -3,8 -7,8z"/>
   </g>
   <g>
    <path class="fil0" d="M258 375c-4,0 -8,-3 -8,-8l0 -62c0,-4 4,-8 8,-8 4,0 8,4 8,8l0 62c0,5 -4,8 -8,8z"/>
   </g>
   <g>
    <path class="fil0" d="M367 125l-62 0c-4,0 -8,-3 -8,-8 0,-4 4,-8 8,-8l62 0c5,0 8,4 8,8 0,5 -3,8 -8,8z"/>
   </g>
   <g>
    <path class="fil0" d="M367 195l-62 0c-4,0 -8,-3 -8,-7 0,-5 4,-8 8,-8l62 0c5,0 8,3 8,8 0,4 -3,7 -8,7z"/>
   </g>
   <g>
    <path class="fil0" d="M367 266l-62 0c-4,0 -8,-4 -8,-8 0,-4 4,-8 8,-8l62 0c5,0 8,4 8,8 0,4 -3,8 -8,8z"/>
   </g>
   <g>
    <path class="fil0" d="M70 125l-62 0c-4,0 -8,-3 -8,-8 0,-4 4,-8 8,-8l62 0c5,0 8,4 8,8 0,5 -3,8 -8,8z"/>
   </g>
   <g>
    <path class="fil0" d="M70 195l-62 0c-4,0 -8,-3 -8,-7 0,-5 4,-8 8,-8l62 0c5,0 8,3 8,8 0,4 -3,7 -8,7z"/>
   </g>
   <g>
    <path class="fil0" d="M70 266l-62 0c-4,0 -8,-4 -8,-8 0,-4 4,-8 8,-8l62 0c5,0 8,4 8,8 0,4 -3,8 -8,8z"/>
   </g>
   <g>
    <path class="fil0" d="M195 266l-15 0c-9,0 -16,-7 -16,-16l0 -13c-2,-1 -5,-3 -7,-4l-12 6c-7,5 -17,2 -21,-5l-8 -14c-4,-8 -2,-17 6,-21l11 -7c0,-1 0,-3 0,-4 0,-2 0,-3 0,-5l-11 -6c-8,-5 -10,-14 -6,-22l8 -13c4,-8 14,-10 21,-6l12 7c2,-2 5,-3 7,-5l0 -13c0,-9 7,-16 16,-16l15 0c9,0 16,7 16,16l0 13c3,2 5,3 8,5l11 -7c8,-4 17,-2 21,6l8 13c5,8 2,17 -5,22l-12 6c0,2 0,3 0,5 0,1 0,3 0,4l12 7c7,4 10,13 5,21l-7 14c-5,7 -14,10 -22,5l-11 -6c-3,1 -5,3 -8,4l0 13c0,9 -7,16 -16,16l0 0zm-38 -51c2,0 4,1 6,2 3,3 7,6 12,7 3,1 5,4 5,8l0 18 15 0 0 -18c0,-4 3,-7 6,-8 4,-1 8,-4 12,-7 2,-2 6,-2 9,0l16 9 8 -14 -16 -9c-3,-2 -4,-5 -4,-8 0,-3 1,-5 1,-7 0,-3 -1,-5 -1,-8 0,-3 1,-6 4,-8l16 -9 -8 -13 -16 9c-3,1 -7,1 -9,-1 -4,-3 -8,-5 -12,-7 -3,-1 -6,-4 -6,-7l0 -19 -15 0 0 19c0,3 -2,6 -5,7 -5,2 -9,4 -12,7 -3,2 -7,2 -10,1l-16 -9 -7 13 15 9c3,2 5,5 4,8 0,3 0,5 0,8 0,2 0,4 0,7 1,3 -1,6 -4,8l-16 9 8 14 16 -9c2,-1 3,-2 4,-2l0 0z"/>
   </g>
  </g>
 </g>
</svg>
