<?xml version="1.0" encoding="UTF-8"?>
<!DOCTYPE svg PUBLIC "-//W3C//DTD SVG 1.1//EN" "http://www.w3.org/Graphics/SVG/1.1/DTD/svg11.dtd">
<!-- Creator: CorelDRAW X7 -->
<svg xmlns="http://www.w3.org/2000/svg" xml:space="preserve" width="23.3054cm" height="16.7022cm" version="1.1" style="shape-rendering:geometricPrecision; text-rendering:geometricPrecision; image-rendering:optimizeQuality; fill-rule:evenodd; clip-rule:evenodd"
viewBox="0 0 525 376"
 xmlns:xlink="http://www.w3.org/1999/xlink">
 <defs>
  <style type="text/css">
   <![CDATA[
    .fil0 {fill:#C5C6C6}
   ]]>
  </style>
 </defs>
 <g id="Layer_x0020_1">
  <metadata id="CorelCorpID_0Corel-Layer"/>
  <g id="truck.svg">
   <g>
    <g>
     <path class="fil0" d="M122 271c-29,0 -52,24 -52,53 0,28 23,52 52,52 29,0 53,-24 53,-52 0,-29 -24,-53 -53,-53zm0 88c-19,0 -35,-16 -35,-35 0,-20 16,-35 35,-35 20,0 35,15 35,35 0,19 -15,35 -35,35z"/>
    </g>
   </g>
   <g>
    <g>
     <path class="fil0" d="M420 271c-29,0 -53,24 -53,53 0,28 24,52 53,52 29,0 52,-24 52,-52 0,-29 -23,-53 -52,-53zm0 88c-20,0 -35,-16 -35,-35 0,-20 15,-35 35,-35 19,0 35,15 35,35 0,19 -16,35 -35,35z"/>
    </g>
   </g>
   <g>
    <g>
     <path class="fil0" d="M523 223l-78 -123c-2,-2 -5,-4 -8,-4l-96 0c-5,0 -9,4 -9,9l0 219c0,4 4,8 9,8l35 0 0 -17 -26 0 0 -201 82 0 75 116 0 85 -44 0 0 17 53 0c5,0 9,-4 9,-8l0 -97c0,-1 -1,-3 -2,-4z"/>
    </g>
   </g>
   <g>
    <g>
     <path class="fil0" d="M385 210l0 -61 70 0 0 -18 -79 0c-5,0 -9,4 -9,9l0 79c0,4 4,8 9,8l131 0 0 -17 -122 0 0 0z"/>
    </g>
   </g>
   <g>
    <g>
     <path class="fil0" d="M341 35l-332 0c-5,0 -9,4 -9,9l0 280c0,4 4,8 9,8l70 0 0 -17 -62 0 0 -263 315 0 0 263 -166 0 0 17 175 0c5,0 9,-4 9,-8l0 -280c0,-5 -4,-9 -9,-9z"/>
    </g>
   </g>
   <g>
    <g>
     <rect class="fil0" x="9" y="280" width="52.4694" height="17.4902"/>
    </g>
   </g>
   <g>
    <g>
     <rect class="fil0" x="184" y="280" width="148.663" height="17.4902"/>
    </g>
   </g>
   <g>
    <g>
     <rect class="fil0" x="481" y="280" width="34.9792" height="17.4902"/>
    </g>
   </g>
   <g>
    <g>
     <rect class="fil0" x="35" y="70" width="306.071" height="17.4902"/>
    </g>
   </g>
   <g>
    <g>
     <rect class="fil0" x="114" y="315" width="17.4902" height="17.4902"/>
    </g>
   </g>
   <g>
    <g>
     <rect class="fil0" x="411" y="315" width="17.4902" height="17.4902"/>
    </g>
   </g>
   <g>
    <g>
     <rect class="fil0" x="35" width="122.429" height="17.4902"/>
    </g>
   </g>
   <g>
    <g>
     <rect class="fil0" width="17.4902" height="17.4902"/>
    </g>
   </g>
   <g>
   </g>
   <g>
   </g>
   <g>
   </g>
   <g>
   </g>
   <g>
   </g>
   <g>
   </g>
   <g>
   </g>
   <g>
   </g>
   <g>
   </g>
   <g>
   </g>
   <g>
   </g>
   <g>
   </g>
   <g>
   </g>
   <g>
   </g>
   <g>
   </g>
  </g>
 </g>
</svg>
