<?xml version="1.0" encoding="UTF-8"?>
<!DOCTYPE svg PUBLIC "-//W3C//DTD SVG 1.1//EN" "http://www.w3.org/Graphics/SVG/1.1/DTD/svg11.dtd">
<!-- Creator: CorelDRAW X7 -->
<svg xmlns="http://www.w3.org/2000/svg" xml:space="preserve" width="22.1293cm" height="17.9811cm" version="1.1" style="shape-rendering:geometricPrecision; text-rendering:geometricPrecision; image-rendering:optimizeQuality; fill-rule:evenodd; clip-rule:evenodd"
viewBox="0 0 534 434"
 xmlns:xlink="http://www.w3.org/1999/xlink">
 <defs>
  <style type="text/css">
   <![CDATA[
    .fil0 {fill:#C5C6C6}
   ]]>
  </style>
 </defs>
 <g id="Layer_x0020_1">
  <metadata id="CorelCorpID_0Corel-Layer"/>
  <g id="gear.svg">
   <g>
    <g>
     <path class="fil0" d="M363 235l-5 -28c-1,-6 -8,-12 -14,-13 0,0 -17,-2 -24,-15 -7,-13 0,-27 0,-27 3,-6 2,-15 -2,-20 0,0 -3,-4 -10,-10 -6,-6 -10,-10 -10,-10 -3,-2 -8,-3 -12,-3 -3,0 -6,1 -8,2 0,0 -8,4 -17,4 -4,0 -7,0 -11,-2 -14,-7 -16,-23 -16,-23 -1,-6 -7,-13 -14,-14l-28 -4 -1 0c-6,0 -13,5 -16,10 0,0 -7,15 -21,18 -2,0 -3,0 -5,0 -12,0 -22,-9 -22,-9 -3,-3 -8,-5 -13,-5 -2,0 -4,0 -6,1l-25 14c-6,3 -9,11 -8,18 0,0 4,16 -7,26 -7,8 -16,9 -22,9 -3,0 -4,-1 -4,-1 -1,0 -2,0 -3,0 -6,0 -12,4 -15,9l-12 25c-3,6 -1,15 4,19 0,0 12,11 10,26 -2,15 -17,22 -17,22 -5,3 -10,11 -9,17l5 28c2,6 8,12 15,13 0,0 16,2 23,15 8,13 0,27 0,27 -3,6 -2,15 2,20 0,0 4,4 10,10 7,6 11,10 11,10 3,2 7,3 11,3 3,0 6,-1 9,-2 0,0 7,-4 16,-4 4,0 8,0 12,2 13,7 16,23 16,23 1,6 7,13 13,14l28 4 1 0c6,0 14,-5 16,-10 0,0 7,-15 22,-18 1,0 3,0 4,0 13,0 22,9 22,9 3,3 8,5 13,5 2,0 4,0 6,-1l25 -14c6,-3 9,-11 8,-18 0,0 -3,-16 7,-26 7,-8 17,-9 22,-9 3,0 5,1 5,1 1,0 1,0 2,0 6,0 13,-4 16,-9l12 -25c2,-6 0,-15 -5,-19 0,0 -12,-11 -10,-26 2,-15 17,-22 17,-22 6,-3 10,-11 9,-17zm-18 1c-4,3 -23,14 -26,36 -3,21 13,37 16,40l0 1 -11 22 0 0c-1,0 -4,0 -7,0 -14,0 -26,4 -35,13 -15,16 -12,38 -12,42l0 1 -21 11 -1 0c-3,-3 -16,-14 -34,-14 -3,0 -5,0 -8,1 -21,4 -32,23 -34,27l0 0 -25 -3 0 -1c-1,-4 -6,-25 -26,-35 -6,-3 -12,-4 -19,-4 -12,0 -22,5 -25,6l0 0 -1 0c-1,-1 -4,-3 -8,-8 -5,-4 -8,-7 -9,-8l0 -1c2,-4 11,-24 0,-44 -10,-19 -32,-23 -36,-24l-1 0 -4 -24 0 0c4,-3 23,-14 26,-36 3,-21 -12,-37 -16,-40l0 -1 11 -22 0 0c2,0 4,0 7,0 14,0 27,-4 35,-13 16,-16 13,-38 12,-42l0 -1 22 -11 0 0c3,3 16,14 34,14 3,0 5,0 8,-1 22,-4 32,-23 34,-27l1 0 24 3 0 0c1,5 6,26 26,36 6,3 12,4 19,4 12,0 22,-5 25,-6l0 0 1 0c1,1 4,3 9,8 4,4 7,7 8,8l0 1c-2,4 -10,24 0,44 11,19 32,23 37,24l0 0 4 24 0 0z"/>
    </g>
   </g>
   <g>
    <g>
     <path class="fil0" d="M240 192c-16,-16 -37,-23 -58,-23 -23,0 -45,8 -62,26 -32,33 -31,87 3,119 16,16 38,23 59,23 22,0 44,-8 61,-26 33,-33 31,-87 -3,-119zm-10 107c-13,13 -30,21 -48,21 -18,0 -34,-7 -47,-19 -13,-12 -20,-29 -20,-47 -1,-17 6,-34 18,-47 13,-13 30,-21 49,-21 17,0 34,7 46,19 13,12 20,29 21,47 0,17 -6,34 -19,47z"/>
    </g>
   </g>
   <g>
    <g>
     <path class="fil0" d="M529 104c0,0 -13,-8 -15,-18 -3,-11 5,-24 5,-24 1,-2 1,-7 0,-10l-13 -17c-2,-2 -5,-3 -8,-3 0,0 -1,0 -1,0 0,0 -5,2 -11,2 -4,0 -9,-1 -14,-4 -9,-5 -13,-20 -13,-20 0,-3 -4,-6 -7,-7l-21 -3 0 0c-3,0 -7,2 -9,5 0,0 -7,12 -18,15 -2,1 -3,1 -5,1 -9,0 -19,-6 -19,-6 -1,-1 -3,-1 -5,-1 -2,0 -4,0 -5,1l-17 13c-2,2 -4,6 -3,9 0,0 4,15 -2,24 -6,9 -20,13 -20,13 -4,1 -7,4 -7,7l-4 21c0,3 2,7 5,9 0,0 13,7 16,18 2,11 -5,24 -5,24 -2,2 -2,7 0,10l12 16c2,2 5,4 8,4 0,0 1,0 2,-1 0,0 4,-1 10,-1 5,0 10,1 14,4 9,5 13,20 13,20 1,3 4,6 7,7l21 3 0 0c4,0 7,-2 9,-5 0,0 8,-13 18,-15 2,-1 4,-1 5,-1 10,0 19,6 19,6 2,1 3,1 5,1 2,0 4,0 5,-1l17 -13c3,-2 4,-6 3,-9 0,0 -3,-15 2,-24 6,-10 21,-13 21,-13 3,-1 6,-4 7,-7l3 -21c0,-3 -2,-7 -5,-9zm-15 21c-7,3 -19,9 -26,20 -7,11 -6,24 -5,32l-8 5c-5,-2 -13,-6 -23,-6 -3,0 -6,1 -9,2 -13,3 -22,12 -26,18l-9 -1c-3,-7 -9,-19 -20,-26 -6,-3 -14,-5 -23,-5 -3,0 -7,0 -9,0l-6 -7c4,-7 8,-20 5,-32 -3,-13 -13,-22 -19,-26l1 -9c8,-3 20,-9 26,-20 7,-11 7,-24 5,-32l8 -5c5,2 14,5 23,5 3,0 6,0 9,-1 13,-3 22,-12 26,-19l10 2c2,7 8,19 19,26 7,3 14,5 23,5 4,0 7,0 9,0l6 7c-3,7 -8,19 -5,32 3,13 13,22 19,26l-1 9z"/>
    </g>
   </g>
   <g>
    <g>
     <path class="fil0" d="M447 71c-6,-4 -14,-6 -21,-6 -15,0 -29,8 -37,21 -12,20 -5,45 15,57 7,5 14,6 22,6 14,0 28,-7 36,-20 12,-20 6,-46 -15,-58zm0 49c-5,7 -13,12 -21,12 -5,0 -9,-1 -13,-4 -11,-7 -15,-22 -8,-33 4,-7 12,-12 21,-12 4,0 8,1 12,4 12,7 16,22 9,33z"/>
    </g>
   </g>
   <g>
   </g>
   <g>
   </g>
   <g>
   </g>
   <g>
   </g>
   <g>
   </g>
   <g>
   </g>
   <g>
   </g>
   <g>
   </g>
   <g>
   </g>
   <g>
   </g>
   <g>
   </g>
   <g>
   </g>
   <g>
   </g>
   <g>
   </g>
   <g>
   </g>
  </g>
 </g>
</svg>
