<?xml version="1.0" encoding="UTF-8"?>
<!DOCTYPE svg PUBLIC "-//W3C//DTD SVG 1.1//EN" "http://www.w3.org/Graphics/SVG/1.1/DTD/svg11.dtd">
<!-- Creator: CorelDRAW X7 -->
<svg xmlns="http://www.w3.org/2000/svg" xml:space="preserve" width="73.5577cm" height="69.8799cm" version="1.1" style="shape-rendering:geometricPrecision; text-rendering:geometricPrecision; image-rendering:optimizeQuality; fill-rule:evenodd; clip-rule:evenodd"
viewBox="0 0 10482 9958"
 xmlns:xlink="http://www.w3.org/1999/xlink">
 <defs>
  <style type="text/css">
   <![CDATA[
    .fil0 {fill:#19BF69}
   ]]>
  </style>
 </defs>
 <g id="Layer_x0020_1">
  <metadata id="CorelCorpID_0Corel-Layer"/>
  <g id="_2156514170704">
   <g>
    <g id="play-install">
     <path class="fil0" d="M9434 2096l-2097 0 0 -1048 -1048 -1048 -2096 0 -1048 1048 0 1048 -2097 0c-576,0 -1048,472 -1048,1049l0 5765c0,576 472,1048 1048,1048l8386 0c576,0 1048,-472 1048,-1048l0 -5765c0,-577 -472,-1049 -1048,-1049zm-5241 -1048l2096 0 0 1048 -2096 0 0 -1048zm262 7075l-1835 -1834 734 -734 1101 1101 2725 -2725 734 733 -3459 3459z"/>
    </g>
   </g>
   <g>
   </g>
   <g>
   </g>
   <g>
   </g>
   <g>
   </g>
   <g>
   </g>
   <g>
   </g>
   <g>
   </g>
   <g>
   </g>
   <g>
   </g>
   <g>
   </g>
   <g>
   </g>
   <g>
   </g>
   <g>
   </g>
   <g>
   </g>
   <g>
   </g>
  </g>
 </g>
</svg>
