<?xml version="1.0" encoding="UTF-8"?>
<!DOCTYPE svg PUBLIC "-//W3C//DTD SVG 1.1//EN" "http://www.w3.org/Graphics/SVG/1.1/DTD/svg11.dtd">
<!-- Creator: CorelDRAW X7 -->
<svg xmlns="http://www.w3.org/2000/svg" xml:space="preserve" width="17.5045cm" height="17.5045cm" version="1.1" style="shape-rendering:geometricPrecision; text-rendering:geometricPrecision; image-rendering:optimizeQuality; fill-rule:evenodd; clip-rule:evenodd"
viewBox="0 0 243 243"
 xmlns:xlink="http://www.w3.org/1999/xlink">
 <defs>
  <style type="text/css">
   <![CDATA[
    .fil0 {fill:#19BF69}
   ]]>
  </style>
 </defs>
 <g id="Layer_x0020_1">
  <metadata id="CorelCorpID_0Corel-Layer"/>
  <g id="question.svg">
   <g>
    <g>
     <path class="fil0" d="M164 151c-3,0 -5,2 -5,5l0 33c0,13 -10,23 -23,23l-52 0c-2,0 -4,2 -4,5l0 9 -12 -11c0,-2 -2,-3 -4,-3l-31 0c-13,0 -24,-10 -24,-23l0 -73c0,-13 11,-24 24,-24l48 0c3,0 5,-2 5,-5 0,-2 -2,-5 -5,-5l-48 0c-18,0 -33,15 -33,34l0 73c0,18 15,33 33,33l29 0 19 19c1,1 2,2 3,2 1,0 2,-1 2,-1 2,0 3,-2 3,-4l0 -16 47 0c18,0 33,-15 33,-33l0 -33c0,-3 -2,-5 -5,-5z"/>
    </g>
   </g>
   <g>
    <g>
     <path class="fil0" d="M174 0l-12 0c-38,0 -69,31 -69,69 0,38 31,69 69,69l12 0c6,0 12,-1 17,-3l18 18c1,1 2,2 3,2 1,0 1,-1 2,-1 2,-1 3,-2 3,-4l0 -28c8,-6 14,-13 18,-22 5,-10 8,-20 8,-31 0,-38 -31,-69 -69,-69zm35 116c-1,1 -1,3 -1,4l0 18 -12 -11c-1,-1 -2,-2 -3,-2 -1,0 -1,1 -2,1 -5,1 -11,2 -17,2l-12 0c-33,0 -60,-26 -60,-59 0,-33 27,-60 60,-60l12 0c32,0 59,27 59,60 0,19 -9,36 -24,47z"/>
    </g>
   </g>
   <g>
    <g>
     <path class="fil0" d="M189 52c-1,-10 -9,-18 -19,-19 -5,0 -11,2 -15,6 -4,3 -6,9 -6,14 0,3 2,5 5,5 2,0 4,-2 4,-5 0,-3 2,-5 4,-7 2,-3 5,-4 8,-3 5,0 9,4 10,9 0,6 -3,10 -9,12 -4,1 -7,4 -7,8l0 12c0,2 2,4 5,4 3,0 5,-2 5,-4l0 -11c9,-3 16,-11 15,-21z"/>
    </g>
   </g>
   <g>
    <g>
     <path class="fil0" d="M172 99c0,-1 -2,-1 -3,-1 -1,0 -2,0 -3,1 -1,1 -2,2 -2,4 0,1 1,2 2,3 1,1 2,1 3,1 1,0 3,0 3,-1 1,-1 2,-2 2,-3 0,-2 -1,-3 -2,-4z"/>
    </g>
   </g>
   <g>
    <g>
     <path class="fil0" d="M130 147l-100 0c-2,0 -4,2 -4,5 0,2 2,4 4,4l100 0c3,0 5,-2 5,-4 0,-3 -2,-5 -5,-5z"/>
    </g>
   </g>
   <g>
    <g>
     <path class="fil0" d="M134 175c-1,-1 -2,-2 -4,-2 -1,0 -2,1 -3,2 -1,1 -1,2 -1,3 0,1 0,3 1,4 1,0 2,1 3,1 2,0 3,-1 4,-1 1,-1 1,-3 1,-4 0,-1 0,-2 -1,-3z"/>
    </g>
   </g>
   <g>
    <g>
     <path class="fil0" d="M112 173l-82 0c-2,0 -4,3 -4,5 0,3 2,5 4,5l82 0c2,0 4,-2 4,-5 0,-2 -2,-5 -4,-5z"/>
    </g>
   </g>
   <g>
    <g>
     <path class="fil0" d="M100 120l-70 0c-2,0 -4,2 -4,5 0,3 2,5 4,5l70 0c2,0 4,-2 4,-5 0,-3 -2,-5 -4,-5z"/>
    </g>
   </g>
   <g>
   </g>
   <g>
   </g>
   <g>
   </g>
   <g>
   </g>
   <g>
   </g>
   <g>
   </g>
   <g>
   </g>
   <g>
   </g>
   <g>
   </g>
   <g>
   </g>
   <g>
   </g>
   <g>
   </g>
   <g>
   </g>
   <g>
   </g>
   <g>
   </g>
  </g>
 </g>
</svg>
