<?xml version="1.0" encoding="UTF-8"?>
<!DOCTYPE svg PUBLIC "-//W3C//DTD SVG 1.1//EN" "http://www.w3.org/Graphics/SVG/1.1/DTD/svg11.dtd">
<!-- Creator: CorelDRAW X7 -->
<svg xmlns="http://www.w3.org/2000/svg" xml:space="preserve" width="67.6439cm" height="65.0166cm" version="1.1" style="shape-rendering:geometricPrecision; text-rendering:geometricPrecision; image-rendering:optimizeQuality; fill-rule:evenodd; clip-rule:evenodd"
viewBox="0 0 13306 12789"
 xmlns:xlink="http://www.w3.org/1999/xlink"
 enable-background="new 0 0 512 512">
 <defs>
  <style type="text/css">
   <![CDATA[
    .fil0 {fill:#19BF69}
   ]]>
  </style>
 </defs>
 <g id="Layer_x0020_1">
  <metadata id="CorelCorpID_0Corel-Layer"/>
  <g id="_2156514167088">
   <g>
    <path class="fil0" d="M12842 5153c-137,-229 -265,-445 -335,-660 -74,-229 -99,-488 -125,-762 -43,-437 -86,-890 -346,-1247 -263,-361 -682,-543 -1087,-718 -251,-108 -488,-211 -679,-350 -187,-137 -356,-328 -534,-532 -293,-333 -596,-679 -1027,-818 -412,-134 -852,-37 -1277,58 -261,57 -531,117 -779,117 -247,0 -517,-60 -778,-117 -426,-95 -866,-192 -1278,-58 -431,140 -734,485 -1027,818 -178,204 -346,395 -534,532 -66,48 -141,94 -230,142 -95,51 -131,169 -80,264 50,95 168,130 263,80 105,-56 196,-112 276,-171 223,-162 414,-379 598,-589 270,-308 525,-599 854,-706 311,-101 681,-19 1073,68 282,63 573,127 863,127 290,0 582,-64 863,-127 392,-87 762,-169 1073,-68 329,107 584,398 854,705 184,211 375,428 598,590 226,165 494,281 753,393 374,161 727,314 927,589 197,271 234,652 273,1056 27,282 55,575 142,844 84,257 230,502 371,739 210,354 409,688 409,1043 0,354 -199,689 -409,1042 -141,238 -287,483 -371,739 -87,269 -115,562 -143,845 -38,403 -75,784 -272,1055 -200,275 -553,428 -927,589 -259,113 -527,229 -753,393 -223,162 -414,380 -598,590 -270,308 -525,598 -854,705 -311,101 -681,19 -1073,-68 -282,-62 -573,-127 -863,-127 -290,0 -581,65 -863,127 -392,87 -762,169 -1073,68 -329,-107 -584,-397 -854,-705 -184,-210 -375,-428 -598,-590 -226,-164 -494,-280 -753,-393 -374,-161 -726,-314 -926,-589 -198,-271 -234,-652 -273,-1055 -28,-283 -56,-576 -143,-845 -83,-256 -229,-501 -370,-739 -211,-353 -410,-688 -410,-1042 0,-355 199,-689 410,-1043 141,-237 287,-482 370,-739 87,-269 116,-562 143,-844 39,-404 75,-785 273,-1056 113,-156 284,-286 552,-419 96,-48 135,-165 87,-262 -48,-96 -165,-135 -261,-87 -220,110 -498,270 -694,539 -260,357 -303,810 -345,1247 -27,274 -52,533 -126,762 -70,215 -198,431 -334,660 -229,383 -465,780 -465,1242 0,462 236,858 465,1242 136,229 264,445 334,660 74,228 99,487 126,761 42,438 85,891 345,1248 263,361 682,542 1087,717 251,109 488,211 679,350 188,137 356,329 534,532 293,334 596,679 1027,819 145,47 294,65 444,65 276,0 558,-62 834,-123 261,-58 531,-118 778,-118 248,0 518,60 779,118 425,94 865,192 1278,58 430,-140 733,-485 1026,-819 178,-203 347,-395 534,-532 191,-139 428,-241 679,-350 405,-175 824,-356 1087,-717 260,-357 303,-810 346,-1248 26,-274 51,-533 125,-761 70,-215 198,-431 335,-660 228,-384 464,-780 464,-1242 0,-462 -236,-859 -464,-1242l0 0z"/>
    <path class="fil0" d="M1873 4841c-56,171 -159,344 -268,528 -188,315 -382,641 -382,1026 0,384 194,710 382,1026 109,183 212,357 268,527 59,181 79,389 100,609 34,360 70,732 287,1030 219,301 563,450 896,594 201,87 392,169 543,280 149,108 284,262 427,425 241,274 490,558 849,675 122,39 246,55 371,55 228,0 458,-51 684,-102 219,-48 427,-94 623,-94 197,0 404,46 623,94 350,78 712,158 1055,47 359,-117 608,-401 849,-675 143,-163 278,-317 427,-425 152,-111 342,-193 543,-280 333,-144 677,-293 896,-594 217,-298 253,-670 288,-1030 21,-220 41,-428 100,-609 55,-170 158,-344 268,-527 187,-316 381,-642 381,-1026 0,-385 -194,-711 -381,-1026 -110,-184 -213,-357 -268,-528 -59,-181 -79,-389 -100,-609 -35,-360 -71,-732 -288,-1029 -218,-301 -563,-450 -896,-594 -201,-87 -391,-170 -543,-280 -149,-108 -284,-262 -427,-425 -241,-275 -490,-558 -849,-675 -343,-112 -705,-32 -1055,46 -219,49 -426,95 -623,95 -196,0 -404,-46 -623,-95 -350,-78 -712,-158 -1055,-46 -359,117 -608,400 -849,675 -143,163 -278,317 -427,425 -151,110 -342,193 -543,280 -333,144 -677,293 -896,594 -217,297 -253,669 -287,1029 -21,220 -41,428 -100,609l0 0zm488 -572c31,-321 60,-625 214,-837 156,-215 438,-337 736,-465 212,-92 431,-187 618,-323 183,-134 339,-311 490,-483 216,-246 419,-478 676,-561 243,-79 538,-14 851,56 230,51 468,103 707,103 239,0 477,-52 708,-103 312,-70 607,-135 850,-56 257,83 461,315 676,561 151,172 307,349 491,483 186,136 406,231 618,323 298,128 579,250 735,465 154,212 184,516 215,837 22,232 45,471 117,693 69,212 188,412 304,606 168,283 327,549 327,827 0,277 -159,544 -327,826 -116,194 -235,395 -304,607 -72,222 -95,461 -117,692 -31,322 -61,626 -215,838 -156,214 -437,336 -735,465 -212,92 -432,187 -618,322 -184,134 -340,312 -491,484 -215,245 -419,477 -676,561 -243,79 -538,13 -850,-56 -231,-51 -469,-104 -708,-104 -239,0 -477,53 -707,104 -313,69 -608,135 -851,56 -257,-84 -460,-316 -676,-561 -151,-172 -307,-350 -490,-484 -187,-135 -406,-230 -618,-322 -298,-129 -580,-251 -736,-465 -154,-212 -183,-516 -214,-838 -23,-231 -46,-470 -118,-692 -68,-212 -188,-413 -303,-607 -168,-282 -327,-549 -327,-826 0,-278 159,-544 327,-827 115,-194 235,-394 303,-606 72,-222 95,-461 118,-693z"/>
    <path class="fil0" d="M5951 8979c-11,0 -23,0 -34,-1 -288,-10 -559,-142 -744,-364l-967 -1164c-215,-258 -179,-643 79,-857l271 -226c258,-214 643,-179 857,79l488 587c27,33 62,39 80,39 19,1 54,-3 84,-34 1,-2 3,-3 5,-5l2489 -2429c112,-116 262,-182 424,-186 162,-4 317,56 434,168l256 243c243,231 252,617 21,860 -2,2 -3,3 -5,5l-1323 1307c-76,76 -200,75 -275,-1 -76,-77 -75,-200 1,-276l1321 -1305c81,-88 78,-225 -9,-308l-256 -243c-42,-40 -97,-62 -156,-60 -58,1 -113,25 -153,67 -2,2 -3,4 -5,5l-2490 2430c-98,101 -235,157 -376,152 -142,-5 -276,-71 -367,-180l-488 -587c-77,-93 -215,-105 -308,-28l-271 225c-93,77 -106,216 -28,308l967 1165c113,136 280,217 457,223 177,7 349,-64 471,-192 1,-1 3,-3 4,-4l1093 -1080c76,-76 200,-75 275,1 76,77 75,200 -1,276l-1091 1078c-191,199 -455,312 -730,312l0 0z"/>
   </g>
  </g>
 </g>
</svg>
