<?xml version="1.0" encoding="UTF-8"?>
<!DOCTYPE svg PUBLIC "-//W3C//DTD SVG 1.1//EN" "http://www.w3.org/Graphics/SVG/1.1/DTD/svg11.dtd">
<!-- Creator: CorelDRAW X7 -->
<svg xmlns="http://www.w3.org/2000/svg" xml:space="preserve" width="19.8711cm" height="17.4363cm" version="1.1" style="shape-rendering:geometricPrecision; text-rendering:geometricPrecision; image-rendering:optimizeQuality; fill-rule:evenodd; clip-rule:evenodd"
viewBox="0 0 383 336"
 xmlns:xlink="http://www.w3.org/1999/xlink">
 <defs>
  <style type="text/css">
   <![CDATA[
    .fil0 {fill:#19BF69}
   ]]>
  </style>
 </defs>
 <g id="Layer_x0020_1">
  <metadata id="CorelCorpID_0Corel-Layer"/>
  <g id="product.svg">
   <path class="fil0" d="M382 240c-3,-10 -11,-17 -21,-19l0 -145 13 0c3,0 6,-3 6,-6l0 -64c0,-3 -3,-6 -6,-6l-279 0c-3,0 -6,3 -6,6l0 64c0,3 3,6 6,6l13 0 0 127 -7 0c-15,0 -31,4 -44,13l0 -32c0,-4 -3,-7 -6,-7l-45 0c-3,0 -6,3 -6,7l0 145c0,4 3,7 6,7l45 0c3,0 6,-3 6,-7l0 -32c13,9 29,14 44,13l104 0c8,0 15,0 22,-2l137 -37c13,-4 21,-18 18,-31l0 0zm-281 -227l267 0 0 50 -267 0 0 -50zm19 63l228 0 0 147 -73 19c-3,-7 -9,-12 -17,-14l-85 -23c-5,-2 -10,-2 -15,-2l-38 0 0 -127zm-76 247l-31 0 0 -133 31 0 0 133zm317 -64l-137 36c-6,2 -12,3 -19,3l-104 0c-15,0 -29,-5 -41,-14l-3 -2 0 -51 3 -2c12,-9 26,-14 41,-14l57 0c4,0 8,1 12,2l85 23c5,1 9,6 9,11 0,0 0,0 0,0 0,1 0,1 0,1 0,1 0,2 0,3 -2,6 -7,10 -12,10 -1,0 -3,0 -4,-1l-53 -14c-3,-1 -5,0 -7,1 -1,2 -2,4 -1,7 0,2 2,4 4,4l54 15c2,0 4,0 7,0 11,0 21,-7 24,-18 0,-1 1,-3 1,-4l77 -21c1,0 1,0 2,0 6,-1 12,3 14,9 0,1 0,2 0,3 0,6 -4,11 -9,13l0 0zm0 0z"/>
   <path class="fil0" d="M203 101l63 0c4,0 6,-2 6,-6 0,-3 -2,-6 -6,-6l-63 0c-4,0 -7,3 -7,6 0,4 3,6 7,6l0 0zm0 0z"/>
  </g>
 </g>
</svg>
