<?xml version="1.0" encoding="UTF-8"?>
<!DOCTYPE svg PUBLIC "-//W3C//DTD SVG 1.1//EN" "http://www.w3.org/Graphics/SVG/1.1/DTD/svg11.dtd">
<!-- Creator: CorelDRAW X7 -->
<svg xmlns="http://www.w3.org/2000/svg" xml:space="preserve" width="78.0727cm" height="68.8427cm" version="1.1" style="shape-rendering:geometricPrecision; text-rendering:geometricPrecision; image-rendering:optimizeQuality; fill-rule:evenodd; clip-rule:evenodd"
viewBox="0 0 17062 15044"
 xmlns:xlink="http://www.w3.org/1999/xlink">
 <defs>
  <style type="text/css">
   <![CDATA[
    .fil0 {fill:#19BF69}
   ]]>
  </style>
 </defs>
 <g id="Layer_x0020_1">
  <metadata id="CorelCorpID_0Corel-Layer"/>
  <g id="_2156514171536">
   <g>
    <g>
     <g>
      <path class="fil0" d="M16833 4396l-784 -1411c-67,-120 -219,-164 -340,-97 -121,67 -164,219 -97,340l784 1411c226,406 220,887 -16,1288 -235,400 -653,639 -1118,639 -559,0 -1053,-356 -1230,-887l-1727 -5179 1224 0c350,0 672,190 842,495l680 1224c67,120 219,164 340,97 121,-67 164,-219 97,-340l-680 -1223c-258,-465 -748,-753 -1279,-753l-9996 0c-531,0 -1022,288 -1280,753l-2024 3643c-313,563 -305,1229 22,1784 206,351 514,612 875,757l0 4238c0,138 112,250 250,250 138,0 250,-112 250,-250l0 -4117c57,5 115,8 173,8 707,0 1339,-412 1631,-1042 48,102 105,201 173,296 342,474 873,746 1458,746l213 0c661,0 1245,-358 1557,-899 61,106 134,207 217,300 341,381 829,599 1339,599l288 0c510,0 998,-218 1339,-599 83,-93 155,-194 217,-300 312,541 895,899 1557,899l213 0c584,0 1116,-272 1458,-746 67,-95 125,-194 173,-296 291,630 923,1042 1630,1042 59,0 116,-3 174,-8l0 5679 -7798 0 0 -3585c0,-467 -380,-848 -848,-848l-2679 0c-468,0 -848,381 -848,848l0 3585 -1637 0 0 -407c0,-138 -112,-250 -250,-250 -138,0 -250,112 -250,250l0 2129c0,323 263,585 585,585l13639 0c323,0 585,-262 585,-585l0 -7522c362,-145 669,-406 876,-757 326,-555 334,-1221 22,-1784zm-13803 1283c-177,531 -671,887 -1231,887 -464,0 -882,-239 -1118,-639 -235,-401 -241,-882 -15,-1288l2024 -3644c170,-305 493,-495 843,-495l1224 0 -1727 5179zm3571 -609c-9,84 -12,168 -9,251 -15,28 -25,58 -29,91 -73,658 -627,1154 -1289,1154l-213 0c-422,0 -806,-196 -1052,-539 -247,-342 -312,-768 -179,-1168 0,0 0,0 0,0l1454 -4359 1825 0 -508 4570zm3040 1064c-246,275 -598,432 -966,432l-288 0c-368,0 -721,-157 -966,-432 -246,-275 -364,-642 -323,-1008l514 -4626 1837 0 515 4626c40,366 -77,733 -323,1008zm3412 -107c-247,343 -630,539 -1052,539l-213 0c-662,0 -1216,-496 -1290,-1154 -3,-33 -13,-63 -28,-91 3,-83 0,-167 -10,-251l-508 -4570 1826 0 1453 4359c134,400 69,826 -178,1168zm-9790 8518l-1552 0c-47,0 -85,-39 -85,-86l0 -1222 1637 0 0 1308zm3875 0l-3375 0 0 -5393c0,-192 156,-348 348,-348l2679 0c192,0 349,156 349,348l0 5393 -1 0zm8298 -86c0,47 -39,86 -86,86l-7712 0 0 -1308 7798 0 0 1222z"/>
      <path class="fil0" d="M13115 11192c255,0 462,-207 462,-462l0 -1526c0,-255 -207,-462 -462,-462l-2897 0c-255,0 -462,207 -462,462l0 1526c0,255 207,462 462,462l2897 0zm-2859 -1950l2822 0 0 1450 -2822 0 0 -1450z"/>
      <path class="fil0" d="M13213 12002c673,0 1221,-548 1221,-1221l0 -1629c0,-672 -548,-1220 -1221,-1220l-3093 0c-673,0 -1220,548 -1220,1220l0 1629c0,673 547,1221 1220,1221l3093 0zm-3814 -1221l0 -1629c0,-397 324,-720 721,-720l3093 0c397,0 721,323 721,720l0 1629c0,398 -324,721 -721,721l-3093 0c-397,0 -721,-323 -721,-721z"/>
      <circle class="fil0" cx="4311" cy="12330" r="243"/>
      <path class="fil0" d="M6309 9637l-1717 0c-232,0 -421,188 -421,420l0 790c0,232 189,420 421,420l1717 0c232,0 421,-188 421,-420l0 -790c0,-232 -189,-420 -421,-420zm-79 1131l-1559 0 0 -631 1559 0 0 631z"/>
     </g>
    </g>
   </g>
   <g>
   </g>
   <g>
   </g>
   <g>
   </g>
   <g>
   </g>
   <g>
   </g>
   <g>
   </g>
   <g>
   </g>
   <g>
   </g>
   <g>
   </g>
   <g>
   </g>
   <g>
   </g>
   <g>
   </g>
   <g>
   </g>
   <g>
   </g>
   <g>
   </g>
  </g>
 </g>
</svg>
