<?xml version="1.0" encoding="UTF-8"?>
<!DOCTYPE svg PUBLIC "-//W3C//DTD SVG 1.1//EN" "http://www.w3.org/Graphics/SVG/1.1/DTD/svg11.dtd">
<!-- Creator: CorelDRAW X7 -->
<svg xmlns="http://www.w3.org/2000/svg" xml:space="preserve" width="19.4777cm" height="17.4996cm" version="1.1" style="shape-rendering:geometricPrecision; text-rendering:geometricPrecision; image-rendering:optimizeQuality; fill-rule:evenodd; clip-rule:evenodd"
viewBox="0 0 415 373"
 xmlns:xlink="http://www.w3.org/1999/xlink">
 <defs>
  <style type="text/css">
   <![CDATA[
    .fil0 {fill:#19BF69}
   ]]>
  </style>
 </defs>
 <g id="Layer_x0020_1">
  <metadata id="CorelCorpID_0Corel-Layer"/>
  <g id="shop.svg">
   <g>
    <g>
     <g>
      <path class="fil0" d="M414 115l-39 -76 0 -31c0,-4 -4,-8 -8,-8l-319 0c-5,0 -8,4 -8,8l0 31 -39 76c-1,2 -1,3 -1,4l0 20c0,24 17,43 40,47l0 171 -8 0c-5,0 -9,3 -9,8 0,4 4,8 9,8l16 0c0,0 0,0 0,0l222 0 64 0 33 0 16 0c5,0 8,-4 8,-8 0,-5 -3,-8 -8,-8l-8 0 0 -171c23,-4 40,-23 40,-47l0 -20c0,-1 0,-2 -1,-4zm-358 -99l303 0 0 16 -56 0 -64 0 -63 0 -64 0 -56 0 0 -16zm199 102l-7 -69 49 0 22 71 0 19c0,18 -14,32 -32,32 -17,0 -32,-14 -32,-32l0 -20c0,0 0,0 0,-1zm-16 1l0 20 0 0c0,18 -14,32 -32,32 -17,0 -31,-14 -31,-32l0 -20 7 -70 49 0 7 70zm-72 -70l-7 69c-1,1 -1,1 -1,1l0 20c0,18 -14,32 -31,32 -18,0 -32,-14 -32,-32l0 -19 22 -71 49 0zm-151 90l0 -18 37 -72 48 0 -21 68c0,0 0,1 0,2l0 20c0,18 -15,32 -32,32 -18,0 -32,-14 -32,-32zm310 218l-48 0 0 -25 0 -32 8 0c4,0 8,-4 8,-8 0,-5 -4,-8 -8,-8l-8 0 0 -57 48 0 0 130zm33 0l-16 0 0 -138c0,-5 -4,-8 -9,-8l-64 0 -190 0c-4,0 -8,3 -8,8l0 113c0,5 4,8 8,8l182 0 0 17 -206 0 0 -171c13,-2 25,-10 32,-20 8,12 23,21 40,21 16,0 31,-9 40,-21 8,12 23,21 39,21 17,0 32,-9 40,-21 9,12 24,21 40,21 17,0 31,-9 40,-21 7,10 19,18 32,20l0 171zm-191 -130l28 0 -16 15c-3,3 -3,9 0,12 2,1 4,2 6,2 2,0 4,-1 6,-2l27 -27 43 0 0 97 -174 0 0 -18 80 -79zm-80 56l0 -56 57 0 -57 56zm311 -144c0,18 -15,32 -32,32 -18,0 -32,-14 -32,-32l0 -20c0,-1 0,-2 0,-2l-21 -68 48 0 37 72 0 18z"/>
      <path class="fil0" d="M169 273c3,0 5,-1 6,-3l0 0c3,-3 3,-8 0,-11 -3,-3 -8,-3 -11,0l0 0c-3,3 -3,8 0,11 1,2 3,3 5,3z"/>
      <path class="fil0" d="M8 357l0 0c-4,0 -8,3 -8,8 0,4 4,8 8,8l0 0c5,0 8,-4 8,-8 0,-5 -3,-8 -8,-8z"/>
      <path class="fil0" d="M407 357l0 0c-5,0 -9,3 -9,8 0,4 4,8 9,8l0 0c4,0 8,-4 8,-8 0,-5 -4,-8 -8,-8z"/>
     </g>
    </g>
   </g>
   <g>
   </g>
   <g>
   </g>
   <g>
   </g>
   <g>
   </g>
   <g>
   </g>
   <g>
   </g>
   <g>
   </g>
   <g>
   </g>
   <g>
   </g>
   <g>
   </g>
   <g>
   </g>
   <g>
   </g>
   <g>
   </g>
   <g>
   </g>
   <g>
   </g>
  </g>
 </g>
</svg>
