<?xml version="1.0" encoding="UTF-8"?>
<!DOCTYPE svg PUBLIC "-//W3C//DTD SVG 1.1//EN" "http://www.w3.org/Graphics/SVG/1.1/DTD/svg11.dtd">
<!-- Creator: CorelDRAW X7 -->
<svg xmlns="http://www.w3.org/2000/svg" xml:space="preserve" width="19.2171cm" height="19.2171cm" version="1.1" style="shape-rendering:geometricPrecision; text-rendering:geometricPrecision; image-rendering:optimizeQuality; fill-rule:evenodd; clip-rule:evenodd"
viewBox="0 0 468 468"
 xmlns:xlink="http://www.w3.org/1999/xlink">
 <defs>
  <style type="text/css">
   <![CDATA[
    .fil0 {fill:#19BF69}
   ]]>
  </style>
 </defs>
 <g id="Layer_x0020_1">
  <metadata id="CorelCorpID_0Corel-Layer"/>
  <g id="_2156514182704">
   <g>
    <g>
     <path class="fil0" d="M445 234l-8 0 0 -187 8 0c13,0 23,-11 23,-24 0,-13 -10,-23 -23,-23l-422 0c-13,0 -23,10 -23,23 0,13 10,24 23,24l8 0 0 187 -8 0c-13,0 -23,10 -23,23 0,13 10,24 23,24l422 0c13,0 23,-11 23,-24 0,-13 -10,-23 -23,-23zm-422 -203c-4,0 -7,-3 -7,-8 0,-4 3,-7 7,-7l422 0c4,0 7,3 7,7 0,5 -3,8 -7,8l-422 0zm398 16l0 187 -374 0 0 -187 374 0zm24 218l-422 0c-4,0 -7,-3 -7,-8 0,-4 3,-7 7,-7l422 0c4,0 7,3 7,7 0,5 -3,8 -7,8z"/>
     <path class="fil0" d="M133 179c4,0 7,-4 7,-8l0 -38 24 10 0 46 0 0c0,1 0,2 0,3 1,1 2,2 2,3 1,1 2,1 3,2l38 16c17,7 37,7 54,0l38 -16c1,-1 2,-1 3,-2 1,-1 1,-2 2,-3 0,-1 0,-2 0,-3l0 0 0 -46 31 -13c5,-3 8,-8 8,-13 0,-5 -3,-10 -8,-13l-96 -41c-3,-1 -7,-1 -10,0l-96 41c-5,3 -8,8 -8,13l0 54c0,4 3,8 8,8zm156 5l-34 15c-14,5 -28,5 -42,0l-34 -15 0 -35 50 22c3,1 7,1 10,0l50 -22 0 35 0 0zm-55 -106l91 39 -32 13 0 1 -59 25 -59 -25 0 -1 -32 -13 91 -39z"/>
     <path class="fil0" d="M452 421l-15 0 0 -10c0,-20 -12,-37 -29,-46 12,-11 16,-28 11,-43 -6,-16 -20,-26 -37,-26 -16,0 -31,10 -36,26 -6,15 -2,32 11,43 -18,9 -29,26 -29,46l0 10 -39 0 0 -10c-1,-20 -12,-37 -30,-46 13,-11 17,-28 12,-43 -6,-16 -21,-26 -37,-26 -16,0 -31,10 -37,26 -5,15 -1,32 12,43 -18,9 -29,26 -30,46l0 10 -39 0 0 -10c0,-20 -11,-37 -29,-46 13,-11 17,-28 11,-43 -5,-16 -20,-26 -36,-26 -17,0 -31,10 -37,26 -5,15 -1,32 11,43 -17,9 -29,26 -29,46l0 10 -15 0c-9,0 -16,7 -16,16l0 15c0,9 7,16 16,16l436 0c9,0 16,-7 16,-16l0 -15c0,-9 -7,-16 -16,-16zm-70 -109c13,0 24,11 24,23 0,13 -11,24 -24,24 -13,0 -23,-11 -23,-24 0,-12 10,-23 23,-23zm-39 99c1,-20 19,-37 39,-37 21,0 38,17 39,37l0 10 -78 0 0 -10 0 0zm-109 -99c13,0 23,11 23,23 0,13 -10,24 -23,24 -13,0 -23,-11 -23,-24 0,-12 10,-23 23,-23zm-39 99c1,-20 18,-37 39,-37 21,0 38,17 39,37l0 10 -78 0 0 -10 0 0zm-109 -99c13,0 23,11 23,23 0,13 -10,24 -23,24 -13,0 -24,-11 -24,-24 0,-12 11,-23 24,-23zm-39 99c0,-21 18,-37 39,-37 21,0 38,16 39,37l0 10 -78 0 0 -10zm-31 41l0 -15 436 0 0 15 -436 0z"/>
    </g>
   </g>
  </g>
 </g>
</svg>
